<?xml version="1.0" standalone="no"?>
<!DOCTYPE svg PUBLIC "-//W3C//DTD SVG 20010904//EN"
 "http://www.w3.org/TR/2001/REC-SVG-20010904/DTD/svg10.dtd">
<svg version="1.0" xmlns="http://www.w3.org/2000/svg"
 width="368.000000pt" height="368.000000pt" viewBox="0 0 368.000000 368.000000"
 preserveAspectRatio="xMidYMid meet">
<metadata>
Created by potrace 1.14, written by Peter Selinger 2001-2017
</metadata>
<g transform="translate(0.000000,368.000000) scale(0.100000,-0.100000)"
fill="#000000" stroke="none">
<path d="M1770 2736 c0 -10 8 -16 22 -16 12 0 19 1 17 3 -2 1 -12 9 -21 16
-15 12 -18 11 -18 -3z"/>
<path d="M1278 2699 c18 -17 36 -29 39 -26 7 8 -22 37 -36 37 -6 0 -11 5 -11
10 0 6 -6 10 -12 10 -7 0 2 -14 20 -31z"/>
<path d="M2221 2673 c-1 -17 5 -23 19 -23 11 0 20 5 20 10 0 6 -6 10 -14 10
-8 0 -17 6 -19 13 -3 6 -6 2 -6 -10z"/>
<path d="M1385 2260 c-4 -6 3 -10 14 -10 25 0 27 6 6 13 -8 4 -17 2 -20 -3z"/>
<path d="M2198 2253 c7 -3 16 -2 19 1 4 3 -2 6 -13 5 -11 0 -14 -3 -6 -6z"/>
<path d="M1275 2220 c-3 -5 1 -10 9 -10 9 0 16 5 16 10 0 6 -4 10 -9 10 -6 0
-13 -4 -16 -10z"/>
<path d="M1210 1874 c0 -10 28 -34 39 -34 15 0 14 9 -3 26 -15 14 -36 19 -36
8z"/>
<path d="M2172 1773 c4 -18 37 -20 48 -3 3 4 14 10 25 13 11 2 -2 5 -28 6 -41
1 -48 -2 -45 -16z"/>
<path d="M1724 1754 c3 -9 6 -18 6 -20 0 -2 18 -4 40 -4 22 0 40 5 40 10 0 6
-16 10 -35 10 -19 0 -35 5 -35 10 0 6 -5 10 -11 10 -6 0 -8 -7 -5 -16z"/>
<path d="M895 1490 c-3 -5 -1 -10 4 -10 6 0 11 5 11 10 0 6 -2 10 -4 10 -3 0
-8 -4 -11 -10z"/>
<path d="M960 1490 c0 -5 5 -10 11 -10 5 0 7 5 4 10 -3 6 -8 10 -11 10 -2 0
-4 -4 -4 -10z"/>
<path d="M2640 1475 c0 -8 5 -15 10 -15 6 0 10 7 10 15 0 8 -4 15 -10 15 -5 0
-10 -7 -10 -15z"/>
<path d="M838 1463 c6 -2 18 -2 25 0 6 3 1 5 -13 5 -14 0 -19 -2 -12 -5z"/>
<path d="M753 1443 c9 -2 25 -2 35 0 9 3 1 5 -18 5 -19 0 -27 -2 -17 -5z"/>
<path d="M2833 1443 c9 -2 25 -2 35 0 9 3 1 5 -18 5 -19 0 -27 -2 -17 -5z"/>
<path d="M1218 1403 c6 -2 18 -2 25 0 6 3 1 5 -13 5 -14 0 -19 -2 -12 -5z"/>
<path d="M1557 1403 c18 -2 50 -2 70 0 21 2 7 4 -32 4 -38 0 -55 -2 -38 -4z"/>
<path d="M1900 1399 c0 -5 5 -7 10 -4 6 3 10 8 10 11 0 2 -4 4 -10 4 -5 0 -10
-5 -10 -11z"/>
<path d="M1988 1403 c18 -2 45 -2 60 0 15 2 0 4 -33 4 -33 0 -45 -2 -27 -4z"/>
<path d="M1080 1360 c0 -5 5 -10 10 -10 6 0 10 5 10 10 0 6 -4 10 -10 10 -5 0
-10 -4 -10 -10z"/>
<path d="M1040 1340 c0 -5 5 -10 10 -10 6 0 10 5 10 10 0 6 -4 10 -10 10 -5 0
-10 -4 -10 -10z"/>
<path d="M925 1075 c-5 -1 -46 -11 -90 -20 -82 -18 -215 -77 -295 -130 -58
-38 -159 -139 -191 -190 -42 -65 -72 -163 -64 -211 14 -99 117 -159 270 -159
96 0 169 20 284 78 131 66 201 147 201 235 0 32 -7 47 -31 71 -17 17 -37 31
-46 31 -26 0 -8 22 29 35 74 25 128 85 136 150 4 37 1 47 -21 68 -35 36 -132
58 -182 42z m-49 -68 c21 -19 26 -31 26 -66 -1 -24 -8 -51 -16 -60 -9 -10 -16
-22 -16 -27 0 -12 -46 -55 -94 -88 -21 -14 -34 -26 -28 -26 39 0 59 -148 29
-206 -28 -53 -86 -111 -132 -133 -55 -26 -83 -26 -115 -2 -21 17 -25 29 -28
93 -3 59 1 88 23 151 50 151 140 292 217 345 72 49 95 52 134 19z"/>
<path d="M1804 966 c-13 -21 -15 -50 -12 -171 3 -131 5 -148 22 -161 30 -21
62 -17 85 12 19 24 21 40 21 159 0 119 -2 135 -21 159 -27 35 -72 35 -95 2z"/>
<path d="M3257 972 c-15 -16 -17 -51 -17 -285 0 -292 1 -297 60 -297 59 0 60
5 60 299 0 247 -1 269 -18 284 -24 22 -65 21 -85 -1z"/>
<path d="M1306 944 c-13 -12 -16 -38 -16 -119 0 -113 3 -120 63 -153 45 -24
238 -24 284 1 54 29 63 51 63 152 0 105 -13 135 -60 135 -38 0 -60 -24 -60
-66 l0 -34 -85 0 -85 0 0 33 c0 58 -66 90 -104 51z m274 -167 c0 -56 -64 -90
-126 -67 -36 14 -44 26 -44 68 l0 32 85 0 85 0 0 -33z"/>
<path d="M3103 938 c-4 -7 -10 -65 -13 -128 l-5 -115 -68 -3 c-51 -2 -70 -7
-74 -19 -10 -26 25 -43 89 -43 l58 0 0 -73 c0 -84 17 -111 66 -105 48 5 54 32
54 253 0 228 -5 245 -65 245 -19 0 -37 -6 -42 -12z"/>
<path d="M2031 892 c-20 -38 3 -42 214 -42 110 0 206 -4 213 -9 10 -6 7 -20
-17 -62 -79 -139 -82 -149 -58 -180 36 -45 83 -29 122 42 15 30 31 56 35 59 6
5 19 28 63 115 17 35 18 42 5 65 l-14 25 -276 3 c-262 2 -278 1 -287 -16z"/>
<path d="M2733 894 c-10 -26 9 -33 97 -36 l85 -3 3 -42 3 -42 -93 -3 -93 -3
-3 -127 -3 -127 33 -17 c43 -23 156 -30 212 -14 54 15 88 46 66 60 -8 5 -19 5
-25 0 -24 -19 -85 -28 -125 -18 l-40 10 0 89 0 89 75 0 c98 0 115 15 115 98 0
98 -7 102 -166 102 -113 0 -136 -3 -141 -16z"/>
<path d="M1492 622 c-116 -37 -158 -121 -91 -182 46 -41 107 -55 244 -55 138
0 198 17 240 66 55 66 14 131 -109 173 -65 21 -212 20 -284 -2z m213 -46 c96
-41 52 -145 -61 -146 -88 0 -146 48 -121 101 26 51 114 73 182 45z"/>
<path d="M1974 575 c-10 -26 0 -37 59 -61 85 -36 248 -51 395 -35 154 16 242
53 226 96 -8 21 -36 17 -114 -15 -50 -21 -72 -23 -225 -23 -161 -1 -174 1
-241 26 -82 31 -93 32 -100 12z"/>
</g>
</svg>
